<?xml version="1.0" encoding="UTF-8" standalone="no"?>
<svg
   xmlns:dc="http://purl.org/dc/elements/1.1/"
   xmlns:cc="http://creativecommons.org/ns#"
   xmlns:rdf="http://www.w3.org/1999/02/22-rdf-syntax-ns#"
   xmlns:svg="http://www.w3.org/2000/svg"
   xmlns="http://www.w3.org/2000/svg"
   id="svg3282"
   version="1.1"
   xml:space="preserve"
   width="631.25"
   height="631.25"
   viewBox="0 0 631.25 631.25">
  <defs
     id="defs3286">
    <clipPath
       clipPathUnits="userSpaceOnUse"
       id="clipPath3298">
      <path
         d="m 0,504.502 504.67,0 0,-504.442 L 0,0.06 0,504.502 Z"
         id="path3300" />
    </clipPath>
    <clipPath
       clipPathUnits="userSpaceOnUse"
       id="clipPath3304">
      <path
         d="M 0,0 505,0 505,505 0,505 0,0 Z"
         id="path3306" />
    </clipPath>
    <clipPath
       clipPathUnits="userSpaceOnUse"
       id="clipPath3314">
      <path
         d="M 0,0 505,0 505,505 0,505 0,0 Z"
         id="path3316" />
    </clipPath>
  </defs>
  <g
     id="g3290"
     transform="matrix(1.25,0,0,-1.25,0,631.25)">
    <g
         id="g3296"
         clip-path="url(#clipPath3298)">
      <g
           id="g3302"
           clip-path="url(#clipPath3304)">
        <path
             d="m 0,504.502 504.67,0 0,-504.442 L 0,0.06 0,504.502 Z"
             style="fill:#f7df1e;fill-opacity:1;fill-rule:nonzero;stroke:none"
             id="path3308" />
      </g>
    </g>
    <g
       id="g3310"
       style="display:inline">
      <g
         id="g3312"
         clip-path="url(#clipPath3314)"
         style="display:inline">
        <path
           d="m 132.525,83.323 38.57,23.342 c 7.441,-13.193 14.21,-24.355 30.446,-24.355 15.563,0 25.375,6.088 25.375,29.768 l 0,161.04 47.363,0 0,-161.714 c 0,-49.056 -28.755,-71.385 -70.708,-71.385 -37.889,0 -59.882,19.623 -71.046,43.304"
           style="fill:#2f2e2d;fill-opacity:1;fill-rule:nonzero;stroke:none"
           id="path3318" />
        <path
           d="m 299.995,88.398 38.565,22.329 c 10.152,-16.579 23.346,-28.758 46.689,-28.758 19.625,0 32.139,9.812 32.139,23.345 0,16.239 -12.855,21.991 -34.508,31.461 l -11.838,5.078 c -34.172,14.545 -56.84,32.814 -56.84,71.382 0,35.523 27.065,62.59 69.356,62.59 30.11,0 51.762,-10.489 67.323,-37.893 l -36.877,-23.681 c -8.12,14.546 -16.914,20.297 -30.446,20.297 -13.871,0 -22.668,-8.796 -22.668,-20.297 0,-14.21 8.797,-19.962 29.094,-28.759 l 11.84,-5.074 c 40.26,-17.255 62.928,-34.846 62.928,-74.427 0,-42.63 -33.493,-65.972 -78.488,-65.972 -43.981,0 -72.4,20.974 -86.269,48.379"
           style="fill:#2f2e2d;fill-opacity:1;fill-rule:nonzero;stroke:none"
           id="path3320" />
      </g>
    </g>
  </g>
</svg>